<svg id="visual" viewBox="0 0 960 540" width="960" height="540" xmlns="http://www.w3.org/2000/svg" xmlns:xlink="http://www.w3.org/1999/xlink" version="1.1"><path d="M0 315L22.8 327.7C45.7 340.3 91.3 365.7 137 367.3C182.7 369 228.3 347 274 344.8C319.7 342.7 365.3 360.3 411.2 371.7C457 383 503 388 548.8 380.3C594.7 372.7 640.3 352.3 686 350.8C731.7 349.3 777.3 366.7 823 365.3C868.7 364 914.3 344 937.2 334L960 324L960 541L937.2 541C914.3 541 868.7 541 823 541C777.3 541 731.7 541 686 541C640.3 541 594.7 541 548.8 541C503 541 457 541 411.2 541C365.3 541 319.7 541 274 541C228.3 541 182.7 541 137 541C91.3 541 45.7 541 22.8 541L0 541Z" fill="#ffdeac" stroke-linecap="round" stroke-linejoin="miter"></path></svg>